Coordinates
version=1
nRows=7
nColumns=40
inDegrees=yes

Units are S.I. units (second, meters, Newtons, ...)
If the header above contains a line with 'inDegrees', this indicates whether rotational values are in degrees (yes) or radians (no).

endheader
time	pelvis_tilt	pelvis_list	pelvis_rotation	pelvis_tx	pelvis_ty	pelvis_tz	hip_flexion_r	hip_adduction_r	hip_rotation_r	knee_angle_r	knee_angle_r_beta	ankle_angle_r	subtalar_angle_r	mtp_angle_r	hip_flexion_l	hip_adduction_l	hip_rotation_l	knee_angle_l	knee_angle_l_beta	ankle_angle_l	subtalar_angle_l	mtp_angle_l	lumbar_extension	lumbar_bending	lumbar_rotation	arm_flex_r	arm_add_r	arm_rot_r	elbow_flex_r	pro_sup_r	wrist_flex_r	wrist_dev_r	arm_flex_l	arm_add_l	arm_rot_l	elbow_flex_l	pro_sup_l	wrist_flex_l	wrist_dev_l
      5.30000000	     44.67233497	     -0.17863579	   -178.24336390	      0.39666646	      0.70966897	     -0.59724436	     92.26725687	    -12.64310332	      4.29607319	     54.33488735	      0.94832268	     12.06190585	      0.00000000	      0.00000000	     92.12814168	    -12.36227627	     -1.01154691	     54.05360248	      0.94341334	      9.79374288	      0.00000000	      0.00000000	    -47.52172691	     -4.29195026	      2.40356243	     65.90673739	    -23.29541150	     29.20371547	     28.02426096	     78.83959514	      0.00000000	      0.00000000	     74.77887474	     -1.20339207	     17.37366701	     14.20550961	     24.47291709	      0.00000000	      0.00000000
      5.30500000	     44.65439179	     -0.30053550	   -178.32094436	      0.39660330	      0.71010073	     -0.59762196	     92.19130362	    -12.52198241	      4.46209578	     54.15694912	      0.94521708	     11.92802749	      0.00000000	      0.00000000	     91.97181102	    -12.45682036	     -1.14799159	     53.89959297	      0.94072536	      9.75881505	      0.00000000	      0.00000000	    -47.59051102	     -4.52565372	      2.37511772	     65.97479567	    -23.81863053	     30.77554786	     28.47659010	     80.79148324	      0.00000000	      0.00000000	     74.91317096	     -1.12095319	     17.29321615	     14.18114891	     25.92235606	      0.00000000	      0.00000000
      5.31000000	     44.63381966	     -0.34108571	   -178.34134583	      0.39646701	      0.71045213	     -0.59784015	     92.13544062	    -12.49079420	      4.49707741	     54.09619043	      0.94415664	     11.88675010	      0.00000000	      0.00000000	     91.87745206	    -12.54104635	     -1.30540616	     53.80805053	      0.93912765	      9.69593561	      0.00000000	      0.00000000	    -47.63060557	     -4.61779453	      2.32474132	     65.90815935	    -23.44512986	     30.13747289	     28.22997408	     78.62422381	      0.00000000	      0.00000000	     74.98609944	     -1.13076951	     17.28740207	     14.00322276	     26.99901114	      0.00000000	      0.00000000
      5.31500000	     44.61089936	     -0.37189378	   -178.33573244	      0.39632206	      0.71077862	     -0.59798138	     92.07183558	    -12.49093473	      4.51848327	     54.03009194	      0.94300300	     11.84587584	      0.00000000	      0.00000000	     91.78541817	    -12.58323420	     -1.42795834	     53.72080985	      0.93760501	      9.65369229	      0.00000000	      0.00000000	    -47.66781700	     -4.67948368	      2.27503021	     65.86590346	    -23.34382027	     29.99270963	     28.20025081	     78.18451177	      0.00000000	      0.00000000	     75.02550965	     -1.12218018	     17.10840152	     13.91587372	     27.50054363	      0.00000000	      0.00000000
      5.32000000	     44.71876420	     -0.15757895	   -178.23053726	      0.39641750	      0.71078283	     -0.59776595	     92.10026194	    -12.59567078	      4.29195881	     53.99844743	      0.94245070	     11.92116777	      0.00000000	      0.00000000	     91.94896087	    -12.45359194	     -1.13031971	     53.66707780	      0.93666721	      9.59712657	      0.00000000	      0.00000000	    -47.52264334	     -4.43207286	      2.35770053	     65.84911190	    -23.14255514	     29.70237993	     27.99307469	     76.43570039	      0.00000000	      0.00000000	     74.81661863	     -1.20635452	     17.17447065	     14.12237426	     28.23658525	      0.00000000	      0.00000000
      5.32500000	     44.76177066	     -0.17884307	   -178.24314663	      0.39636804	      0.71089679	     -0.59799110	     92.15545963	    -12.57086805	      4.29872925	     54.02291492	      0.94287774	     11.85966419	      0.00000000	      0.00000000	     91.96597731	    -12.52477038	     -1.22466418	     53.64763867	      0.93632793	      9.51115214	      0.00000000	      0.00000000	    -47.47037796	     -4.52041475	      2.32685972	     65.59703611	    -22.63283209	     28.72723323	     27.82678778	     71.70436923	      0.00000000	      0.00000000	     74.74713359	     -1.33016088	     17.40837649	     14.15318833	     30.61871014	      0.00000000	      0.00000000
      5.33000000	     44.61872252	     -0.16866922	   -178.24005026	      0.39619347	      0.71149497	     -0.59812883	     91.90984295	    -12.56693044	      4.29109742	     53.86774621	      0.94016953	     11.83510249	      0.00000000	      0.00000000	     91.73778258	    -12.56489955	     -1.30352719	     53.51444668	      0.93400329	      9.49777282	      0.00000000	      0.00000000	    -47.67327632	     -4.52562287	      2.40862061	     66.12812248	    -24.03570625	     32.31118036	     28.44983181	     79.83972434	      0.00000000	      0.00000000	     75.00362455	     -1.00113490	     16.49717307	     13.88968422	     29.14295622	      0.00000000	      0.00000000
